<svg id="visual" viewBox="0 0 450 900" width="450" height="900" xmlns="http://www.w3.org/2000/svg" xmlns:xlink="http://www.w3.org/1999/xlink" version="1.1"><rect x="0" y="0" width="450" height="900" fill="#ffffff"></rect><defs><linearGradient id="grad1_0" x1="0%" y1="0%" x2="100%" y2="100%"><stop offset="30%" stop-color="#5c8374" stop-opacity="1"></stop><stop offset="70%" stop-color="#5c8374" stop-opacity="1"></stop></linearGradient></defs><defs><linearGradient id="grad1_1" x1="0%" y1="0%" x2="100%" y2="100%"><stop offset="30%" stop-color="#5c8374" stop-opacity="1"></stop><stop offset="70%" stop-color="#ffffff" stop-opacity="1"></stop></linearGradient></defs><defs><linearGradient id="grad2_0" x1="0%" y1="0%" x2="100%" y2="100%"><stop offset="30%" stop-color="#5c8374" stop-opacity="1"></stop><stop offset="70%" stop-color="#5c8374" stop-opacity="1"></stop></linearGradient></defs><defs><linearGradient id="grad2_1" x1="0%" y1="0%" x2="100%" y2="100%"><stop offset="30%" stop-color="#ffffff" stop-opacity="1"></stop><stop offset="70%" stop-color="#5c8374" stop-opacity="1"></stop></linearGradient></defs><g transform="translate(450, 0)"><path d="M0 405C-46 373.9 -92 342.8 -131.3 316.9C-170.5 291 -202.9 270.4 -246.8 246.8C-290.6 223.2 -345.9 196.6 -374.2 155C-402.4 113.4 -403.7 56.7 -405 0L0 0Z" fill="#abbfb7"></path><path d="M0 202.5C-23 186.9 -46 171.4 -65.6 158.4C-85.2 145.5 -101.5 135.2 -123.4 123.4C-145.3 111.6 -172.9 98.3 -187.1 77.5C-201.2 56.7 -201.9 28.3 -202.5 0L0 0Z" fill="#5c8374"></path></g><g transform="translate(0, 900)"><path d="M0 -405C57.4 -403.4 114.7 -401.8 155 -374.2C195.3 -346.5 218.5 -292.8 253.9 -253.9C289.2 -214.9 336.8 -190.6 364 -150.8C391.2 -110.9 398.1 -55.5 405 0L0 0Z" fill="#abbfb7"></path><path d="M0 -202.5C28.7 -201.7 57.4 -200.9 77.5 -187.1C97.6 -173.3 109.2 -146.4 126.9 -126.9C144.6 -107.4 168.4 -95.3 182 -75.4C195.6 -55.5 199.1 -27.7 202.5 0L0 0Z" fill="#5c8374"></path></g></svg>